<svg width="176" height="176" viewBox="0 0 176 176" fill="none" xmlns="http://www.w3.org/2000/svg">
<g filter="url(#filter0_d_31_47)">
<rect x="16" y="12" width="144" height="144" rx="72" fill="#DDD3EA"/>
<path d="M96 58C96 53.5817 92.4183 50 88 50C83.5817 50 80 53.5817 80 58V70C80 74.4183 83.5817 78 88 78C92.4183 78 96 74.4183 96 70V58Z" stroke="#667085" stroke-width="2" stroke-linecap="round" stroke-linejoin="round"/>
<path d="M102 68V72C102 75.713 100.525 79.274 97.8995 81.8995C95.274 84.525 91.713 86 88 86C84.287 86 80.726 84.525 78.1005 81.8995C75.475 79.274 74 75.713 74 72V68M88 86V92M80 92H96" stroke="#667085" stroke-width="2" stroke-linecap="round" stroke-linejoin="round"/>
<text fill="#667085" style="white-space: pre" xml:space="preserve" font-family="Noto Sans KR" font-size="14" font-weight="500" letter-spacing="-0.01em"><tspan x="48" y="117.6">&#xb20c;&#xb7ec;&#xc11c; &#xb9d0;&#xd558;&#xae30;</tspan></text>
</g>
<defs>
<filter id="filter0_d_31_47" x="0" y="0" width="176" height="176" filterUnits="userSpaceOnUse" color-interpolation-filters="sRGB">
<feFlood flood-opacity="0" result="BackgroundImageFix"/>
<feColorMatrix in="SourceAlpha" type="matrix" values="0 0 0 0 0 0 0 0 0 0 0 0 0 0 0 0 0 0 127 0" result="hardAlpha"/>
<feOffset dy="4"/>
<feGaussianBlur stdDeviation="8"/>
<feColorMatrix type="matrix" values="0 0 0 0 0.18 0 0 0 0 0.11 0 0 0 0 0.3 0 0 0 0.08 0"/>
<feBlend mode="normal" in2="BackgroundImageFix" result="effect1_dropShadow_31_47"/>
<feBlend mode="normal" in="SourceGraphic" in2="effect1_dropShadow_31_47" result="shape"/>
</filter>
</defs>
</svg>
